# xmcd
#
# Track frame offsets: 
#        150
#        32562
#        55529
#        104261
#        130176
#        155538
#        194499
#
# Disc length: 3100 seconds
#
# Revision: 2
# Processed by: cddbd v1.5.1PL0 Copyright (c) Steve Scherf et al.
# Submitted via: ExactAudioCopy v0.90b4
#
DISCID=540c1a07
DTITLE=Akosh S. Unit - Nap Mint Nap
DYEAR=2004
DGENRE=Jazz
TTITLE0=Hall
TTITLE1=Hü
TTITLE2=Lát
TTITLE3=Van
TTITLE4=Amíg
TTITLE5=Tesz
TTITLE6=Akar
EXTD=YEAR: 2004
EXTT0=
EXTT1=
EXTT2=
EXTT3=
EXTT4=
EXTT5=
EXTT6=
PLAYORDER=
